<?xml version="1.0" standalone="no"?><!DOCTYPE svg PUBLIC "-//W3C//DTD SVG 1.1//EN" "http://www.w3.org/Graphics/SVG/1.1/DTD/svg11.dtd"><svg t="1742221214746" class="icon" viewBox="0 0 1024 1024" version="1.1" xmlns="http://www.w3.org/2000/svg" p-id="1290" xmlns:xlink="http://www.w3.org/1999/xlink" width="200" height="200"><path d="M886.9888 437.4016h-196.608A122.1632 122.1632 0 0 0 568.32 559.4624V568.32a122.2144 122.2144 0 0 0 122.0096 122.0608h196.608a39.2704 39.2704 0 0 0 39.2704-39.3216v-174.08a39.2704 39.2704 0 0 0-39.2192-39.5776z" fill="#FFE6D8" p-id="1291"></path><path d="M892.416 437.8112a47.5136 47.5136 0 0 0-5.4272-0.4096h-196.608A122.1632 122.1632 0 0 0 568.32 559.4624V568.32a120.832 120.832 0 0 0 10.24 49.5104 121.5488 121.5488 0 0 0 77.6704 27.9552h196.608a39.2192 39.2192 0 0 0 39.2704-39.2704z" fill="#FED9C4" p-id="1292"></path><path d="M690.3808 437.4016A122.1632 122.1632 0 0 0 568.32 559.4624V568.32a118.6816 118.6816 0 0 0 1.8432 21.0432 120.832 120.832 0 0 0 52.48 11.8784H819.2a39.2704 39.2704 0 0 0 39.2704-39.2704V437.4016z" fill="#FFB392" p-id="1293"></path><path d="M690.3808 437.4016A122.1632 122.1632 0 0 0 568.32 554.8032a120.9856 120.9856 0 0 0 20.48 1.7408h196.6592a39.3216 39.3216 0 0 0 39.2704-39.2704v-79.872z" fill="#FE966C" p-id="1294"></path><path d="M690.3808 437.4016a122.2144 122.2144 0 0 0-112.64 74.5984h173.6192a39.3216 39.3216 0 0 0 39.3216-39.2704v-35.328z" fill="#FF7B4C" p-id="1295"></path><path d="M796.5184 253.5936h-121.8048c-1.5872-71.2192-56.8832-128.6144-124.7232-128.6144h-332.8C148.48 124.9792 92.6208 184.32 92.6208 256.6656v500.4288a141.3632 141.3632 0 0 0 141.2608 141.2608h562.6368a141.4144 141.4144 0 0 0 141.2608-141.2608V394.8544a141.4144 141.4144 0 0 0-141.2608-141.2608zM217.3952 206.8992h332.8c22.7328 0 41.4208 20.48 42.8032 46.6944H174.592c1.3824-26.0096 19.968-46.6944 42.8032-46.6944z m638.464 550.1952a59.392 59.392 0 0 1-59.3408 59.3408H233.8816a59.392 59.392 0 0 1-59.3408-59.3408V335.5136h621.9776a59.392 59.392 0 0 1 59.3408 59.3408z" fill="#373E51" p-id="1296"></path></svg>